<svg aria-hidden="true" style="position: absolute; width: 0; height: 0; overflow: hidden;" version="1.1" xmlns="http://www.w3.org/2000/svg" xmlns:xlink="http://www.w3.org/1999/xlink">
<defs>
<symbol id="camera" viewBox="0 0 37 32">
<path d="M10.080 3.556l3.253-3.556h10.667l3.253 3.556h5.635c1.956 0 3.556 1.6 3.556 3.556v21.333c0 1.955-1.6 3.555-3.556 3.555h-28.444c-1.956 0-3.556-1.6-3.556-3.555v-21.333c0-1.956 1.6-3.556 3.556-3.556h5.636zM9.778 17.778c0 4.907 3.982 8.889 8.889 8.889s8.889-3.982 8.889-8.889c0-4.907-3.982-8.889-8.889-8.889s-8.889 3.982-8.889 8.889zM18.667 23.467c3.142 0 5.689-2.547 5.689-5.689s-2.547-5.689-5.689-5.689c-3.142 0-5.689 2.547-5.689 5.689s2.547 5.689 5.689 5.689z"></path>
</symbol>
<symbol id="trasher" viewBox="0 0 27 32">
<path d="M2.667 28.445c0 1.955 1.6 3.555 3.556 3.555h14.222c1.956 0 3.556-1.6 3.556-3.555v-21.333h-21.333v21.333zM25.778 1.778h-6.222l-1.778-1.778h-8.889l-1.778 1.778h-6.222v3.556h24.889v-3.556z"></path>
</symbol>
</defs>
</svg>
